<svg xmlns="http://www.w3.org/2000/svg" width="1000" height="600" viewBox="0 0 1000 600" font-family="Segoe UI, Roboto, Helvetica, Arial, sans-serif">
<defs>
<filter id="sh" x="-10%" y="-10%" width="130%" height="140%"><feDropShadow dx="0" dy="3" stdDeviation="4" flood-color="#002959" flood-opacity="0.18"/></filter>
<marker id="ao" markerWidth="12" markerHeight="12" refX="9" refY="6" orient="auto" markerUnits="userSpaceOnUse"><path d="M0,0 L12,6 L0,12 z" fill="#FF8B48"/></marker>
<marker id="ab" markerWidth="12" markerHeight="12" refX="9" refY="6" orient="auto" markerUnits="userSpaceOnUse"><path d="M0,0 L12,6 L0,12 z" fill="#33547A"/></marker>
<marker id="ag" markerWidth="12" markerHeight="12" refX="9" refY="6" orient="auto" markerUnits="userSpaceOnUse"><path d="M0,0 L12,6 L0,12 z" fill="#2E8B57"/></marker>
<marker id="agr" markerWidth="12" markerHeight="12" refX="9" refY="6" orient="auto" markerUnits="userSpaceOnUse"><path d="M0,0 L12,6 L0,12 z" fill="#CCD4DE"/></marker>
<linearGradient id="gnavy" x1="0" y1="0" x2="1" y2="1"><stop offset="0" stop-color="#002959"/><stop offset="1" stop-color="#33547A"/></linearGradient>
<linearGradient id="gor" x1="0" y1="0" x2="1" y2="1"><stop offset="0" stop-color="#FF8B48"/><stop offset="1" stop-color="#E67E42"/></linearGradient>
</defs>
<rect x="0" y="0" width="1000" height="600" rx="18" fill="#FFFFFF"/>
<text x="40" y="58" font-size="32" font-weight="700" fill="#002959" text-anchor="start"><tspan x="40" dy="0">Minimax: vastane mängib alati parimal viisil</tspan></text>
<rect x="40" y="72" width="90" height="6" rx="3" fill="#FF8B48"/>
<line x1="470" y1="150" x2="300" y2="228" stroke="#9AA8BA" stroke-width="4" stroke-linecap="round"/>
<line x1="530" y1="150" x2="700" y2="228" stroke="#FF8B48" stroke-width="7" stroke-linecap="round"/>
<line x1="240" y1="285" x2="180" y2="362" stroke="#9AA8BA" stroke-width="4" stroke-linecap="round"/>
<line x1="300" y1="285" x2="360" y2="362" stroke="#9AA8BA" stroke-width="4" stroke-linecap="round"/>
<line x1="700" y1="285" x2="640" y2="362" stroke="#FF8B48" stroke-width="7" stroke-linecap="round"/>
<line x1="760" y1="285" x2="820" y2="362" stroke="#9AA8BA" stroke-width="4" stroke-linecap="round"/>
<text x="360" y="182" font-size="20" font-weight="700" fill="#33547A" text-anchor="end"><tspan x="360" dy="0">käik A</tspan></text>
<text x="640" y="182" font-size="20" font-weight="700" fill="#E67E42" text-anchor="start"><tspan x="640" dy="0">käik B</tspan></text>
<rect x="330" y="90" width="340" height="60" rx="14" fill="#002959" filter="url(#sh)"/>
<text x="500" y="127.7" font-size="22" font-weight="700" fill="#FFFFFF" text-anchor="middle"><tspan x="500" dy="0">MINU KÄIK (MAX)</tspan></text>
<rect x="130" y="228" width="280" height="58" rx="14" fill="#CCD4DE" filter="url(#sh)"/>
<text x="270" y="264.7" font-size="22" font-weight="700" fill="#002959" text-anchor="middle"><tspan x="270" dy="0">VASTANE (MIN)</tspan></text>
<rect x="590" y="228" width="280" height="58" rx="14" fill="#CCD4DE" filter="url(#sh)"/>
<text x="730" y="264.7" font-size="22" font-weight="700" fill="#002959" text-anchor="middle"><tspan x="730" dy="0">VASTANE (MIN)</tspan></text>
<circle cx="170" cy="398" r="36" fill="#FFFFFF" stroke="#33547A" stroke-width="3" filter="url(#sh)"/>
<text x="170" y="407" font-size="26" font-weight="800" fill="#002959" text-anchor="middle"><tspan x="170" dy="0">+3</tspan></text>
<circle cx="370" cy="398" r="36" fill="#FF8B48" filter="url(#sh)"/>
<text x="370" y="407" font-size="26" font-weight="800" fill="#FFFFFF" text-anchor="middle"><tspan x="370" dy="0">−2</tspan></text>
<circle cx="630" cy="398" r="36" fill="#FF8B48" filter="url(#sh)"/>
<text x="630" y="407" font-size="26" font-weight="800" fill="#FFFFFF" text-anchor="middle"><tspan x="630" dy="0">+1</tspan></text>
<circle cx="830" cy="398" r="36" fill="#FFFFFF" stroke="#33547A" stroke-width="3" filter="url(#sh)"/>
<text x="830" y="407" font-size="26" font-weight="800" fill="#002959" text-anchor="middle"><tspan x="830" dy="0">+4</tspan></text>
<rect x="80" y="238" width="44" height="38" rx="10" fill="#FFF4EC" stroke="#FF8B48" stroke-width="2"/>
<text x="102" y="264" font-size="20" font-weight="800" fill="#E67E42" text-anchor="middle"><tspan x="102" dy="0">−2</tspan></text>
<rect x="876" y="238" width="44" height="38" rx="10" fill="#FFF4EC" stroke="#FF8B48" stroke-width="2"/>
<text x="898" y="264" font-size="20" font-weight="800" fill="#E67E42" text-anchor="middle"><tspan x="898" dy="0">+1</tspan></text>
<rect x="676" y="98" width="64" height="44" rx="10" fill="#FF8B48"/>
<text x="708" y="128" font-size="22" font-weight="800" fill="#FFFFFF" text-anchor="middle"><tspan x="708" dy="0">+1</tspan></text>
<rect x="40" y="460" width="920" height="120" rx="14" fill="#EEF2F7"/>
<circle cx="80" cy="497" r="22" fill="#FF8B48"/>
<text x="80" y="504.92" font-size="22" font-weight="700" fill="#FFFFFF" text-anchor="middle"><tspan x="80" dy="0">1</tspan></text>
<text x="115" y="504" font-size="21" font-weight="400" fill="#002959" text-anchor="start"><tspan x="115" dy="0">Vastane valib igas harus minule halvima: A → −2, B → +1</tspan></text>
<circle cx="80" cy="545" r="22" fill="#FF8B48"/>
<text x="80" y="552.92" font-size="22" font-weight="700" fill="#FFFFFF" text-anchor="middle"><tspan x="80" dy="0">2</tspan></text>
<text x="115" y="552" font-size="21" font-weight="700" fill="#002959" text-anchor="start"><tspan x="115" dy="0">Mina valin nende seast parima: käik B (+1)</tspan></text>
</svg>