<svg xmlns="http://www.w3.org/2000/svg" width="1000" height="720" viewBox="0 0 1000 720" font-family="Segoe UI, Roboto, Helvetica, Arial, sans-serif">
<defs>
<filter id="sh" x="-10%" y="-10%" width="130%" height="140%"><feDropShadow dx="0" dy="3" stdDeviation="4" flood-color="#002959" flood-opacity="0.18"/></filter>
<marker id="ao" markerWidth="12" markerHeight="12" refX="9" refY="6" orient="auto" markerUnits="userSpaceOnUse"><path d="M0,0 L12,6 L0,12 z" fill="#FF8B48"/></marker>
<marker id="ab" markerWidth="12" markerHeight="12" refX="9" refY="6" orient="auto" markerUnits="userSpaceOnUse"><path d="M0,0 L12,6 L0,12 z" fill="#33547A"/></marker>
<marker id="ag" markerWidth="12" markerHeight="12" refX="9" refY="6" orient="auto" markerUnits="userSpaceOnUse"><path d="M0,0 L12,6 L0,12 z" fill="#2E8B57"/></marker>
<marker id="agr" markerWidth="12" markerHeight="12" refX="9" refY="6" orient="auto" markerUnits="userSpaceOnUse"><path d="M0,0 L12,6 L0,12 z" fill="#CCD4DE"/></marker>
<linearGradient id="gnavy" x1="0" y1="0" x2="1" y2="1"><stop offset="0" stop-color="#002959"/><stop offset="1" stop-color="#33547A"/></linearGradient>
<linearGradient id="gor" x1="0" y1="0" x2="1" y2="1"><stop offset="0" stop-color="#FF8B48"/><stop offset="1" stop-color="#E67E42"/></linearGradient>
</defs>
<rect x="0" y="0" width="1000" height="720" rx="18" fill="#FFFFFF"/>
<text x="40" y="58" font-size="32" font-weight="700" fill="#002959" text-anchor="start"><tspan x="40" dy="0">Ekspertsüsteemi ülesehitus</tspan></text>
<rect x="40" y="72" width="90" height="6" rx="3" fill="#FF8B48"/>
<line x1="500" y1="148" x2="500" y2="180" stroke="#33547A" stroke-width="3" stroke-linecap="round" marker-end="url(#ab)"/>
<text x="515" y="170" font-size="20" font-weight="400" fill="#33547A" text-anchor="start"><tspan x="515" dy="0">teadmised</tspan></text>
<line x1="500" y1="240" x2="500" y2="280" stroke="#33547A" stroke-width="3" stroke-linecap="round" marker-end="url(#ab)"/>
<line x1="355" y1="325" x2="312" y2="325" stroke="#33547A" stroke-width="3" stroke-linecap="round" marker-end="url(#ab)"/>
<line x1="180" y1="370" x2="300" y2="412" stroke="#33547A" stroke-width="3" stroke-linecap="round" marker-end="url(#ab)"/>
<line x1="500" y1="370" x2="500" y2="412" stroke="#33547A" stroke-width="3" stroke-linecap="round" marker-end="url(#ab)"/>
<line x1="530" y1="412" x2="530" y2="374" stroke="#33547A" stroke-width="3" stroke-linecap="round" marker-end="url(#ab)"/>
<line x1="380" y1="486" x2="300" y2="525" stroke="#FF8B48" stroke-width="4" stroke-linecap="round" marker-end="url(#ao)"/>
<line x1="620" y1="486" x2="700" y2="525" stroke="#FF8B48" stroke-width="4" stroke-linecap="round" marker-end="url(#ao)"/>
<line x1="300" y1="590" x2="455" y2="632" stroke="#33547A" stroke-width="3" stroke-linecap="round" marker-end="url(#ab)"/>
<line x1="700" y1="590" x2="545" y2="632" stroke="#33547A" stroke-width="3" stroke-linecap="round" marker-end="url(#ab)"/>
<rect x="380" y="88" width="240" height="60" rx="14" fill="#EEF2F7" stroke="#33547A" stroke-width="2" filter="url(#sh)"/>
<text x="500.0" y="125.7" font-size="22" font-weight="700" fill="#002959" text-anchor="middle"><tspan x="500.0" dy="0">EKSPERT</tspan></text>
<rect x="300" y="182" width="400" height="58" rx="14" fill="#EEF2F7" stroke="#33547A" stroke-width="2" filter="url(#sh)"/>
<text x="500.0" y="218.7" font-size="22" font-weight="700" fill="#002959" text-anchor="middle"><tspan x="500.0" dy="0">Teadmuse omandamise moodul</tspan></text>
<rect x="360" y="282" width="280" height="88" rx="14" fill="#002959" filter="url(#sh)"/>
<text x="500.0" y="322.0" font-size="22" font-weight="700" fill="#FFFFFF" text-anchor="middle"><tspan x="500.0" dy="0">TEADMUSBAAS</tspan></text>
<text x="500.0" y="348.0" font-size="20" font-weight="400" fill="#CCD4DE" text-anchor="middle"><tspan x="500.0" dy="0">faktid ja reeglid</tspan></text>
<rect x="60" y="282" width="250" height="88" rx="14" fill="#EEF2F7" stroke="#33547A" stroke-width="2" filter="url(#sh)"/>
<text x="185.0" y="322.0" font-size="22" font-weight="700" fill="#002959" text-anchor="middle"><tspan x="185.0" dy="0">Töömälu</tspan></text>
<text x="185.0" y="348.0" font-size="20" font-weight="400" fill="#33547A" text-anchor="middle"><tspan x="185.0" dy="0">juhtumi faktid</tspan></text>
<rect x="180" y="414" width="640" height="72" rx="14" fill="url(#gor)" filter="url(#sh)"/>
<text x="500.0" y="446.0" font-size="22" font-weight="700" fill="#FFFFFF" text-anchor="middle"><tspan x="500.0" dy="0">JÄRELDUSMEHHANISM</tspan></text>
<text x="500.0" y="472.0" font-size="20" font-weight="400" fill="#FFFFFF" text-anchor="middle"><tspan x="500.0" dy="0">rakendab reegleid, teeb järeldusi</tspan></text>
<rect x="130" y="527" width="340" height="64" rx="14" fill="#EEF2F7" stroke="#33547A" stroke-width="2" filter="url(#sh)"/>
<text x="300.0" y="555.0" font-size="22" font-weight="700" fill="#002959" text-anchor="middle"><tspan x="300.0" dy="0">Kasutajaliides</tspan></text>
<text x="300.0" y="581.0" font-size="20" font-weight="400" fill="#33547A" text-anchor="middle"><tspan x="300.0" dy="0">küsimused ja vastus</tspan></text>
<rect x="530" y="527" width="340" height="64" rx="14" fill="#FFF4EC" stroke="#FF8B48" stroke-width="2" filter="url(#sh)"/>
<text x="700.0" y="555.0" font-size="22" font-weight="700" fill="#002959" text-anchor="middle"><tspan x="700.0" dy="0">Selgitusmoodul</tspan></text>
<text x="700.0" y="581.0" font-size="20" font-weight="400" fill="#E67E42" text-anchor="middle"><tspan x="700.0" dy="0">„Miks? Kuidas?“</tspan></text>
<rect x="400" y="634" width="200" height="56" rx="14" fill="#EEF2F7" stroke="#33547A" stroke-width="2" filter="url(#sh)"/>
<text x="500.0" y="669.7" font-size="22" font-weight="700" fill="#002959" text-anchor="middle"><tspan x="500.0" dy="0">KASUTAJA</tspan></text>
</svg>