<svg xmlns="http://www.w3.org/2000/svg" width="1000" height="560" viewBox="0 0 1000 560" font-family="Segoe UI, Roboto, Helvetica, Arial, sans-serif">
<defs>
<filter id="sh" x="-10%" y="-10%" width="130%" height="140%"><feDropShadow dx="0" dy="3" stdDeviation="4" flood-color="#002959" flood-opacity="0.18"/></filter>
<marker id="ao" markerWidth="12" markerHeight="12" refX="9" refY="6" orient="auto" markerUnits="userSpaceOnUse"><path d="M0,0 L12,6 L0,12 z" fill="#FF8B48"/></marker>
<marker id="ab" markerWidth="12" markerHeight="12" refX="9" refY="6" orient="auto" markerUnits="userSpaceOnUse"><path d="M0,0 L12,6 L0,12 z" fill="#33547A"/></marker>
<marker id="ag" markerWidth="12" markerHeight="12" refX="9" refY="6" orient="auto" markerUnits="userSpaceOnUse"><path d="M0,0 L12,6 L0,12 z" fill="#2E8B57"/></marker>
<marker id="ar" markerWidth="12" markerHeight="12" refX="9" refY="6" orient="auto" markerUnits="userSpaceOnUse"><path d="M0,0 L12,6 L0,12 z" fill="#C0392B"/></marker>
<linearGradient id="gnavy" x1="0" y1="0" x2="1" y2="1"><stop offset="0" stop-color="#002959"/><stop offset="1" stop-color="#33547A"/></linearGradient>
<linearGradient id="gfade" x1="0" y1="0" x2="1" y2="0"><stop offset="0" stop-color="#002959"/><stop offset="1" stop-color="#002959" stop-opacity="0.12"/></linearGradient>
<linearGradient id="gtemp" x1="0" y1="0" x2="1" y2="0"><stop offset="0" stop-color="#33547A"/><stop offset="1" stop-color="#FF8B48"/></linearGradient>
</defs>
<rect x="0" y="0" width="1000" height="560" rx="18" fill="#FFFFFF"/>
<text x="40" y="58" font-size="32" font-weight="700" fill="#002959" text-anchor="start"><tspan x="40" dy="0">Tagasisidesilmus</tspan></text>
<rect x="40" y="72" width="90" height="6" rx="3" fill="#FF8B48"/>
<path d="M628,175 Q760,180 760,362" fill="none" stroke="#FF8B48" stroke-width="7" marker-end="url(#ao)"/>
<path d="M630,470 Q500,545 372,470" fill="none" stroke="#FF8B48" stroke-width="7" marker-end="url(#ao)"/>
<path d="M240,372 Q240,180 362,175" fill="none" stroke="#FF8B48" stroke-width="7" marker-end="url(#ao)"/>
<rect x="375.0" y="112.0" width="250" height="116" rx="14" fill="#EEF2F7" stroke="#002959" stroke-width="2" filter="url(#sh)"/>
<circle cx="421.0" cy="170" r="33" fill="#FFFFFF"/>
<rect x="401.5" y="155.1" width="39.0" height="9.75" rx="1.9500000000000002" fill="#002959"/>
<circle cx="434.0" cy="159.975" r="1.9500000000000002" fill="#FF8B48"/>
<rect x="401.5" y="166.79999999999998" width="39.0" height="9.75" rx="1.9500000000000002" fill="#002959"/>
<circle cx="434.0" cy="171.67499999999998" r="1.9500000000000002" fill="#FF8B48"/>
<rect x="401.5" y="178.5" width="39.0" height="9.75" rx="1.9500000000000002" fill="#002959"/>
<circle cx="434.0" cy="183.375" r="1.9500000000000002" fill="#FF8B48"/>
<text x="467.0" y="165" font-size="20" font-weight="700" fill="#002959" text-anchor="start"><tspan x="467.0" dy="0">kallutatud</tspan><tspan x="467.0" dy="24">andmed</tspan></text>
<rect x="635.0" y="372.0" width="250" height="116" rx="14" fill="#FFF4EC" filter="url(#sh)"/>
<circle cx="681.0" cy="430" r="33" fill="#FFFFFF"/>
<line x1="681.0" y1="415.1" x2="681.0" y2="421.6" stroke="#002959" stroke-width="1.9500000000000002"/>
<circle cx="681.0" cy="414.45" r="2.6" fill="#FF8B48"/>
<rect x="666.7" y="421.6" width="28.6" height="22.1" rx="5.2" fill="#002959"/>
<circle cx="675.15" cy="430.7" r="3.25" fill="#FF8B48"/><circle cx="686.85" cy="430.7" r="3.25" fill="#FF8B48"/>
<rect x="675.15" y="437.2" width="11.700000000000001" height="2.6" rx="1.3" fill="#FFFFFF"/>
<text x="727.0" y="425" font-size="20" font-weight="700" fill="#002959" text-anchor="start"><tspan x="727.0" dy="0">kallutatud</tspan><tspan x="727.0" dy="24">otsused</tspan></text>
<rect x="115.0" y="372.0" width="250" height="116" rx="14" fill="#EEF2F7" filter="url(#sh)"/>
<circle cx="161.0" cy="430" r="33" fill="#FFFFFF"/>
<rect x="149.3" y="416.4" width="23.400000000000002" height="31.200000000000003" rx="2.6" fill="#FFFFFF" stroke="#002959" stroke-width="1.9500000000000002"/>
<line x1="154.5" y1="424.2" x2="167.5" y2="424.2" stroke="#002959" stroke-width="1.625"/>
<line x1="154.5" y1="430.05" x2="167.5" y2="430.05" stroke="#002959" stroke-width="1.625"/>
<line x1="154.5" y1="435.9" x2="167.5" y2="435.9" stroke="#002959" stroke-width="1.625"/>
<path d="M162.3,442.4 L167.5,447.6 L177.9,434.6" fill="none" stroke="#FF8B48" stroke-width="3.25" stroke-linecap="round" stroke-linejoin="round"/>
<text x="207.0" y="413" font-size="20" font-weight="700" fill="#002959" text-anchor="start"><tspan x="207.0" dy="0">uued andmed</tspan><tspan x="207.0" dy="24">peegeldavad</tspan><tspan x="207.0" dy="24">neid otsuseid</tspan></text>
<circle cx="500" cy="335" r="74" fill="#FFE2D1"/>
<text x="500" y="312" font-size="20" font-weight="700" fill="#C0392B" text-anchor="middle"><tspan x="500" dy="0">kallutatus</tspan><tspan x="500" dy="25">võimendub</tspan><tspan x="500" dy="25">iga ringiga</tspan></text>
</svg>