<svg xmlns="http://www.w3.org/2000/svg" width="1000" height="360" viewBox="0 0 1000 360" font-family="Segoe UI, Roboto, Helvetica, Arial, sans-serif">
<defs>
<filter id="sh" x="-10%" y="-10%" width="130%" height="140%"><feDropShadow dx="0" dy="3" stdDeviation="4" flood-color="#002959" flood-opacity="0.18"/></filter>
<marker id="ao" markerWidth="12" markerHeight="12" refX="9" refY="6" orient="auto" markerUnits="userSpaceOnUse"><path d="M0,0 L12,6 L0,12 z" fill="#FF8B48"/></marker>
<marker id="ab" markerWidth="12" markerHeight="12" refX="9" refY="6" orient="auto" markerUnits="userSpaceOnUse"><path d="M0,0 L12,6 L0,12 z" fill="#33547A"/></marker>
<marker id="ag" markerWidth="12" markerHeight="12" refX="9" refY="6" orient="auto" markerUnits="userSpaceOnUse"><path d="M0,0 L12,6 L0,12 z" fill="#2E8B57"/></marker>
<marker id="ar" markerWidth="12" markerHeight="12" refX="9" refY="6" orient="auto" markerUnits="userSpaceOnUse"><path d="M0,0 L12,6 L0,12 z" fill="#C0392B"/></marker>
<linearGradient id="gnavy" x1="0" y1="0" x2="1" y2="1"><stop offset="0" stop-color="#002959"/><stop offset="1" stop-color="#33547A"/></linearGradient>
<linearGradient id="gfade" x1="0" y1="0" x2="1" y2="0"><stop offset="0" stop-color="#002959"/><stop offset="1" stop-color="#002959" stop-opacity="0.12"/></linearGradient>
<linearGradient id="gtemp" x1="0" y1="0" x2="1" y2="0"><stop offset="0" stop-color="#33547A"/><stop offset="1" stop-color="#FF8B48"/></linearGradient>
</defs>
<rect x="0" y="0" width="1000" height="360" rx="18" fill="#FFFFFF"/>
<text x="40" y="58" font-size="32" font-weight="700" fill="#002959" text-anchor="start"><tspan x="40" dy="0">ELi TI-määrus rakendub järk-järgult</tspan></text>
<rect x="40" y="72" width="90" height="6" rx="3" fill="#FF8B48"/>
<rect x="60" y="150" width="880" height="10" rx="5" fill="#33547A"/>
<path d="M935,140 L965,155 L935,170 z" fill="#33547A"/>
<circle cx="135" cy="155" r="20" fill="#FF8B48" stroke="#FF8B48" stroke-width="5"/>
<text x="135" y="128" font-size="24" font-weight="700" fill="#002959" text-anchor="middle"><tspan x="135" dy="0">01.08.2024</tspan></text>
<rect x="25" y="195" width="220" height="135" rx="14" fill="#FFF4EC" filter="url(#sh)"/>
<text x="135" y="245" font-size="20" font-weight="700" fill="#002959" text-anchor="middle"><tspan x="135" dy="0">määrus</tspan><tspan x="135" dy="27">jõustub</tspan></text>
<circle cx="380" cy="155" r="20" fill="#FFFFFF" stroke="#FF8B48" stroke-width="5"/>
<text x="380" y="128" font-size="24" font-weight="700" fill="#002959" text-anchor="middle"><tspan x="380" dy="0">02.02.2025</tspan></text>
<rect x="270" y="195" width="220" height="135" rx="14" fill="#EEF2F7" filter="url(#sh)"/>
<text x="380" y="245" font-size="20" font-weight="600" fill="#002959" text-anchor="middle"><tspan x="380" dy="0">keelatud</tspan><tspan x="380" dy="27">praktikate</tspan><tspan x="380" dy="27">keelud kehtivad</tspan></text>
<circle cx="625" cy="155" r="20" fill="#FFFFFF" stroke="#FF8B48" stroke-width="5"/>
<text x="625" y="128" font-size="24" font-weight="700" fill="#002959" text-anchor="middle"><tspan x="625" dy="0">02.08.2025</tspan></text>
<rect x="515" y="195" width="220" height="135" rx="14" fill="#EEF2F7" filter="url(#sh)"/>
<text x="625" y="245" font-size="20" font-weight="600" fill="#002959" text-anchor="middle"><tspan x="625" dy="0">kohustused</tspan><tspan x="625" dy="27">üldotstarbelistele</tspan><tspan x="625" dy="27">TI-mudelitele</tspan></text>
<circle cx="870" cy="155" r="20" fill="#FFFFFF" stroke="#FF8B48" stroke-width="5"/>
<text x="870" y="128" font-size="24" font-weight="700" fill="#002959" text-anchor="middle"><tspan x="870" dy="0">2026</tspan></text>
<rect x="760" y="195" width="220" height="135" rx="14" fill="#EEF2F7" filter="url(#sh)"/>
<text x="870" y="245" font-size="20" font-weight="600" fill="#002959" text-anchor="middle"><tspan x="870" dy="0">rakendub suurem</tspan><tspan x="870" dy="27">osa ülejäänud</tspan><tspan x="870" dy="27">nõuetest</tspan></text>
</svg>