<svg xmlns="http://www.w3.org/2000/svg" width="1200" height="520" viewBox="0 0 1200 520"><defs><clipPath id="frame"><rect width="1200" height="520" rx="24"/></clipPath></defs><g clip-path="url(#frame)"><rect width="1200" height="520" fill="#FFFFFF"/><defs><clipPath id="pL"><rect x="16" y="16" width="376" height="488" rx="20"/></clipPath><clipPath id="pM"><rect x="404" y="16" width="392" height="488" rx="20"/></clipPath><clipPath id="pR"><rect x="808" y="16" width="376" height="488" rx="20"/></clipPath></defs><g clip-path="url(#pL)"><rect x="16" y="16" width="376" height="488" fill="#EEF2F7"/><circle cx="80" cy="80" r="28" fill="#FFE2D1"/><circle cx="40" cy="290" r="18" fill="#2E8B57" opacity="0.7"/><circle cx="70" cy="290" r="18" fill="#2E8B57" opacity="0.7"/><circle cx="300" cy="290" r="18" fill="#2E8B57" opacity="0.7"/><circle cx="335" cy="290" r="18" fill="#2E8B57" opacity="0.7"/><circle cx="365" cy="290" r="18" fill="#2E8B57" opacity="0.7"/><rect x="16" y="296" width="376" height="208" fill="#FFE2D1"/><path d="M16,316 Q200,302 392,316" stroke="#E67E42" stroke-width="5" fill="none" opacity="0.35"/><path d="M16,348 Q200,334 392,348" stroke="#E67E42" stroke-width="5" fill="none" opacity="0.35"/><path d="M16,380 Q200,366 392,380" stroke="#E67E42" stroke-width="5" fill="none" opacity="0.35"/><path d="M16,412 Q200,398 392,412" stroke="#E67E42" stroke-width="5" fill="none" opacity="0.35"/><path d="M16,444 Q200,430 392,444" stroke="#E67E42" stroke-width="5" fill="none" opacity="0.35"/><path d="M16,476 Q200,462 392,476" stroke="#E67E42" stroke-width="5" fill="none" opacity="0.35"/><polygon points="262,104 220,360 352,360 278,104" fill="#FFFFFF" opacity="0.35"/><rect x="220" y="360" width="132" height="70" fill="none" stroke="#002959" stroke-width="3" stroke-dasharray="8 6"/><ellipse cx="300" cy="400" rx="30" ry="16" fill="#FF8B48" opacity="0.75"/><circle cx="232" cy="372" r="4" fill="#002959"/><circle cx="340" cy="372" r="4" fill="#002959"/><circle cx="232" cy="418" r="4" fill="#002959"/><circle cx="340" cy="418" r="4" fill="#002959"/><line x1="232" y1="88" x2="308" y2="88" stroke="#002959" stroke-width="5" stroke-linecap="round"/><ellipse cx="232" cy="80" rx="22" ry="5" fill="#33547A"/><ellipse cx="308" cy="80" rx="22" ry="5" fill="#33547A"/><rect x="232" y="78" width="4" height="10" fill="#002959"/><rect x="304" y="78" width="4" height="10" fill="#002959"/><rect x="246" y="84" width="48" height="20" rx="8" fill="#002959"/><circle cx="270" cy="106" r="6" fill="#FF8B48"/><g transform="translate(110,232) scale(1.0)"><ellipse cx="0" cy="212" rx="44" ry="7" fill="#002959" opacity="0.12"/><rect x="-24" y="112" width="21" height="94" rx="8" fill="#002959"/><rect x="3" y="112" width="21" height="94" rx="8" fill="#002959"/><ellipse cx="-15" cy="207" rx="15" ry="7" fill="#33547A"/><ellipse cx="15" cy="207" rx="15" ry="7" fill="#33547A"/><rect x="-7" y="18" width="14" height="18" fill="#F2C9A5"/><path d="M-30,48 C-30,36 -20,32 -10,32 L10,32 C20,32 30,36 30,48 L30,118 L-30,118 Z" fill="#CCD4DE"/><path d="M-30,104 L30,104 L30,118 L-30,118 Z" fill="#002959" opacity="0.08"/><path d="M-24,44 L-34,84 L-26,90" fill="none" stroke="#CCD4DE" stroke-width="15" stroke-linecap="round" stroke-linejoin="round"/><circle cx="-26" cy="90" r="8" fill="#F2C9A5"/><path d="M24,44 L34,84 L26,82" fill="none" stroke="#CCD4DE" stroke-width="15" stroke-linecap="round" stroke-linejoin="round"/><circle cx="26" cy="82" r="8" fill="#F2C9A5"/><circle cx="0" cy="0" r="24" fill="#F2C9A5"/><path d="M-8,20 A24,24 0 0 0 22,8 A26,26 0 0 1 -8,20 Z" fill="#002959" opacity="0.08"/><path d="M-25,-4 C-25,-28 25,-28 25,-4 Z" fill="#33547A"/><rect x="0" y="-10" width="36" height="7" rx="3.5" fill="#33547A"/><circle cx="-4" cy="2" r="2.6" fill="#002959"/><circle cx="12" cy="2" r="2.6" fill="#002959"/><path d="M-1,11 Q4,14 9,11" fill="none" stroke="#002959" stroke-width="2" stroke-linecap="round"/><rect x="-34" y="50" width="68" height="46" rx="6" fill="#002959" transform="rotate(-10 0 73)"/><rect x="-29" y="55" width="58" height="36" rx="3" fill="#FFE2D1" transform="rotate(-10 0 73)"/><ellipse cx="8" cy="72" rx="10" ry="6" fill="#FF8B48" transform="rotate(-10 0 73)"/></g><path d="M150,300 Q200,250 238,200" stroke="#002959" stroke-width="3" stroke-dasharray="3 8" fill="none" stroke-linecap="round" opacity="0.5"/></g><g clip-path="url(#pM)"><rect x="404" y="16" width="392" height="488" fill="#FFF4EC"/><rect x="404" y="440" width="392" height="64" fill="#FFE2D1"/><rect x="418" y="200" width="8" height="240" fill="#33547A"/><rect x="514" y="200" width="8" height="240" fill="#33547A"/><rect x="418" y="270" width="104" height="8" fill="#33547A"/><rect x="418" y="350" width="104" height="8" fill="#33547A"/><rect x="418" y="430" width="104" height="8" fill="#33547A"/><rect x="430" y="230" width="40" height="40" rx="3" fill="#FF8B48"/><rect x="446.0" y="230" width="8" height="40" fill="#E67E42" opacity="0.6"/><rect x="474" y="240" width="36" height="30" rx="3" fill="#FF8B48"/><rect x="488.0" y="240" width="8" height="30" fill="#E67E42" opacity="0.6"/><rect x="430" y="310" width="50" height="40" rx="3" fill="#FF8B48"/><rect x="451.0" y="310" width="8" height="40" fill="#E67E42" opacity="0.6"/><rect x="484" y="322" width="26" height="28" rx="3" fill="#FF8B48"/><rect x="493.0" y="322" width="8" height="28" fill="#E67E42" opacity="0.6"/><rect x="434" y="394" width="70" height="36" rx="3" fill="#FF8B48"/><rect x="465.0" y="394" width="8" height="36" fill="#E67E42" opacity="0.6"/><rect x="540" y="44" width="236" height="170" rx="12" fill="#002959"/><rect x="550" y="54" width="216" height="150" rx="6" fill="#CCD4DE"/><path d="M550,110 L766,94 M590,54 L620,204 M690,54 L700,204 M550,170 L766,160" stroke="#FFFFFF" stroke-width="7"/><path d="M600,180 Q610,120 650,118 Q700,116 700,84 L740,80" stroke="#FF8B48" stroke-width="6" fill="none" stroke-linecap="round" stroke-dasharray="2 0"/><circle cx="600" cy="180" r="9" fill="#002959"/><circle cx="600" cy="180" r="4" fill="#FFFFFF"/><path d="M740,80 m-12,-6 a12,12 0 1 1 24,0 q0,10 -12,22 q-12,-12 -12,-22 Z" fill="#FF8B48"/><circle cx="740" cy="74" r="4" fill="#FFFFFF"/><rect x="560" y="64" width="104" height="34" rx="10" fill="#002959"/><text x="612" y="89" font-family="Arial, Helvetica, sans-serif" font-size="22" font-weight="bold" fill="#FFFFFF" text-anchor="middle">−12 min</text><g transform="translate(626,232) scale(1.0)"><ellipse cx="0" cy="212" rx="44" ry="7" fill="#002959" opacity="0.12"/><path d="M-27,0 L-29,46 L29,46 L27,0 Z" fill="#6A4024"/><rect x="-24" y="112" width="21" height="94" rx="8" fill="#33547A"/><rect x="3" y="112" width="21" height="94" rx="8" fill="#33547A"/><ellipse cx="-15" cy="207" rx="15" ry="7" fill="#002959"/><ellipse cx="15" cy="207" rx="15" ry="7" fill="#002959"/><rect x="-7" y="18" width="14" height="18" fill="#A8714B"/><path d="M-30,48 C-30,36 -20,32 -10,32 L10,32 C20,32 30,36 30,48 L30,118 L-30,118 Z" fill="#002959"/><path d="M-30,48 C-30,36 -20,32 -10,32 L-4,32 L-4,124 L-30,124 Z" fill="#FF8B48"/><path d="M30,48 C30,36 20,32 10,32 L4,32 L4,124 L30,124 Z" fill="#FF8B48"/><path d="M-30,48 C-30,36 -20,32 -10,32 L-4,32 L-4,124 L-30,124 Z" fill="#002959" opacity="0.06"/><path d="M-30,104 L30,104 L30,118 L-30,118 Z" fill="#002959" opacity="0.08"/><path d="M-24,44 L-36,84 L-34,112" fill="none" stroke="#FF8B48" stroke-width="15" stroke-linecap="round" stroke-linejoin="round"/><circle cx="-34" cy="112" r="8" fill="#A8714B"/><path d="M24,44 L56,20 L72,-16" fill="none" stroke="#FF8B48" stroke-width="15" stroke-linecap="round" stroke-linejoin="round"/><circle cx="72" cy="-16" r="8" fill="#A8714B"/><circle cx="0" cy="0" r="24" fill="#A8714B"/><path d="M-8,20 A24,24 0 0 0 22,8 A26,26 0 0 1 -8,20 Z" fill="#002959" opacity="0.08"/><path d="M-27,-2 C-30,-30 -8,-36 3,-34 C22,-32 30,-18 27,2 L29,44 L14,44 L18,-8 C8,-17 -10,-18 -18,-10 L-14,44 L-29,44 Z" fill="#6A4024"/><circle cx="-5" cy="2" r="2.6" fill="#002959"/><circle cx="11" cy="2" r="2.6" fill="#002959"/><path d="M-2,11 Q3,14 8,11" fill="none" stroke="#002959" stroke-width="2" stroke-linecap="round"/><rect x="-30" y="80" width="60" height="6" fill="#FFFFFF" opacity="0.8"/></g><rect x="688" y="350" width="80" height="74" rx="6" fill="#FFFFFF"/><path d="M768,370 L796,370 L810,396 L810,424 L768,424 Z" fill="#33547A"/><path d="M772,376 L792,376 L802,394 L772,394 Z" fill="#CCD4DE"/><rect x="700" y="372" width="40" height="14" rx="4" fill="#FF8B48"/><circle cx="712" cy="428" r="13" fill="#002959"/><circle cx="712" cy="428" r="5" fill="#CCD4DE"/><circle cx="784" cy="428" r="13" fill="#002959"/><circle cx="784" cy="428" r="5" fill="#CCD4DE"/></g><g clip-path="url(#pR)"><rect x="808" y="16" width="376" height="488" fill="#EEF2F7"/><rect x="808" y="440" width="376" height="64" fill="#CCD4DE"/><g transform="translate(1128,400) scale(0.7)"><path d="M0,0 C-30,-20 -34,-60 -10,-80 C-6,-50 -4,-30 0,0 Z" fill="#2E8B57"/><path d="M0,0 C30,-24 36,-64 14,-86 C8,-56 4,-30 0,0 Z" fill="#2E8B57" opacity="0.85"/><path d="M0,0 C-8,-30 2,-70 0,-100 C10,-70 8,-30 0,0 Z" fill="#2E8B57" opacity="0.7"/><path d="M-22,-2 L22,-2 L16,40 L-16,40 Z" fill="#E67E42"/><rect x="-25" y="-6" width="50" height="10" rx="4" fill="#FF8B48"/></g><rect x="896" y="72" width="214" height="78" rx="18" fill="#002959" opacity="0.1"/><rect x="890" y="64" width="214" height="78" rx="18" fill="#FFFFFF" stroke="#FF8B48" stroke-width="4"/><path d="M934,82 L958,124 L910,124 Z" fill="#FF8B48" stroke="#FF8B48" stroke-width="6" stroke-linejoin="round"/><rect x="931" y="94" width="6" height="16" rx="3" fill="#FFFFFF"/><circle cx="934" cy="117" r="3.5" fill="#FFFFFF"/><text x="1032" y="113" font-family="Arial, Helvetica, sans-serif" font-size="28" font-weight="bold" fill="#002959" text-anchor="middle">Pettus?</text><g transform="rotate(-12 1060 196)"><rect x="1022" y="172" width="78" height="50" rx="8" fill="#33547A"/><rect x="1022" y="184" width="78" height="10" fill="#002959"/><rect x="1032" y="204" width="18" height="12" rx="2" fill="#FFE2D1"/></g><path d="M1046,166 L1030,148" stroke="#FF8B48" stroke-width="3" stroke-dasharray="3 6" stroke-linecap="round"/><rect x="826" y="272" width="18" height="100" rx="8" fill="#33547A"/><rect x="830" y="362" width="96" height="18" rx="8" fill="#33547A"/><rect x="872" y="380" width="12" height="62" fill="#002959"/><g transform="translate(880,252) scale(1.0)"><path d="M-24,112 L-24,128 L56,128 L56,112 Z" fill="#002959"/><rect x="-24" y="108" width="80" height="24" rx="11" fill="#002959"/><rect x="38" y="110" width="20" height="78" rx="8" fill="#002959"/><ellipse cx="56" cy="190" rx="16" ry="7" fill="#002959"/><rect x="-7" y="18" width="14" height="18" fill="#D9A27C"/><path d="M-30,48 C-30,36 -20,32 -10,32 L10,32 C20,32 30,36 30,48 L30,118 L-30,118 Z" fill="#FFFFFF"/><path d="M-30,48 C-30,36 -20,32 -10,32 L-4,32 L-4,124 L-30,124 Z" fill="#002959"/><path d="M30,48 C30,36 20,32 10,32 L4,32 L4,124 L30,124 Z" fill="#002959"/><path d="M-30,48 C-30,36 -20,32 -10,32 L-4,32 L-4,124 L-30,124 Z" fill="#002959" opacity="0.06"/><path d="M-30,104 L30,104 L30,118 L-30,118 Z" fill="#002959" opacity="0.08"/><path d="M-24,44 L-26,88 L8,100" fill="none" stroke="#002959" stroke-width="15" stroke-linecap="round" stroke-linejoin="round"/><circle cx="8" cy="100" r="8" fill="#D9A27C"/><path d="M24,44 L58,70 L96,54" fill="none" stroke="#002959" stroke-width="15" stroke-linecap="round" stroke-linejoin="round"/><circle cx="96" cy="54" r="8" fill="#D9A27C"/><circle cx="0" cy="0" r="24" fill="#D9A27C"/><path d="M-8,20 A24,24 0 0 0 22,8 A26,26 0 0 1 -8,20 Z" fill="#002959" opacity="0.08"/><path d="M-25,-2 C-27,-26 -10,-34 2,-33 C18,-32 28,-22 25,-4 C20,-14 8,-19 -6,-18 C-15,-17 -21,-11 -25,-2 Z" fill="#B9BEC6"/><circle cx="-3" cy="2" r="2.6" fill="#002959"/><circle cx="13" cy="2" r="2.6" fill="#002959"/><path d="M0,11 Q5,14 10,11" fill="none" stroke="#002959" stroke-width="2" stroke-linecap="round"/><path d="M-4,32 L4,32 L6,70 L0,78 L-6,70 Z" fill="#FF8B48"/></g><rect x="950" y="360" width="150" height="16" rx="6" fill="#33547A"/><rect x="964" y="376" width="12" height="66" fill="#33547A"/><rect x="1074" y="376" width="12" height="66" fill="#33547A"/><path d="M984,356 L1076,356 L1070,280 L990,280 Z" fill="#002959"/><path d="M994,348 L1066,348 L1062,288 L998,288 Z" fill="#CCD4DE"/><rect x="1004" y="320" width="7" height="20" fill="#33547A"/><rect x="1015" y="312" width="7" height="28" fill="#33547A"/><rect x="1026" y="324" width="7" height="16" fill="#33547A"/><rect x="1037" y="292" width="7" height="48" fill="#FF8B48"/><rect x="1048" y="318" width="7" height="22" fill="#33547A"/><rect x="972" y="354" width="116" height="8" rx="4" fill="#33547A"/><rect x="1080" y="330" width="16" height="30" rx="3" fill="#FF8B48"/></g><circle cx="398" cy="250" r="26" fill="#002959"/><circle cx="398" cy="250" r="26" fill="none" stroke="#FFFFFF" stroke-width="5"/><path d="M398,236 Q401.92,246.08 412,250 Q401.92,253.92 398,264 Q394.08,253.92 384,250 Q394.08,246.08 398,236 Z" fill="#FF8B48"/><circle cx="802" cy="250" r="26" fill="#002959"/><circle cx="802" cy="250" r="26" fill="none" stroke="#FFFFFF" stroke-width="5"/><path d="M802,236 Q805.92,246.08 816,250 Q805.92,253.92 802,264 Q798.08,253.92 788,250 Q798.08,246.08 802,236 Z" fill="#FF8B48"/><path d="M1160,30 Q1162.8,37.2 1170,40 Q1162.8,42.8 1160,50 Q1157.2,42.8 1150,40 Q1157.2,37.2 1160,30 Z" fill="#FF8B48"/><path d="M40,461 Q42.52,467.48 49,470 Q42.52,472.52 40,479 Q37.48,472.52 31,470 Q37.48,467.48 40,461 Z" fill="#33547A"/></g></svg>