<svg xmlns="http://www.w3.org/2000/svg" width="1200" height="520" viewBox="0 0 1200 520"><defs><clipPath id="frame"><rect width="1200" height="520" rx="24"/></clipPath></defs><g clip-path="url(#frame)"><rect width="1200" height="520" fill="#EEF2F7"/><rect x="0" y="0" width="1200" height="400" fill="#EEF2F7"/><rect x="0" y="400" width="1200" height="120" fill="#CCD4DE"/><rect x="0" y="396" width="1200" height="8" fill="#33547A" opacity="0.25"/><rect x="40" y="120" width="130" height="270" rx="8" fill="#33547A"/><rect x="52" y="208" width="106" height="8" fill="#002959"/><rect x="58" y="164" width="12" height="44" rx="2" fill="#FF8B48"/><rect x="73" y="153" width="19" height="55" rx="2" fill="#CCD4DE"/><rect x="95" y="156" width="17" height="52" rx="2" fill="#FFFFFF"/><rect x="115" y="159" width="15" height="49" rx="2" fill="#E67E42"/><rect x="133" y="162" width="13" height="46" rx="2" fill="#FFE2D1"/><rect x="149" y="151" width="20" height="57" rx="2" fill="#EEF2F7"/><rect x="52" y="293" width="106" height="8" fill="#002959"/><rect x="58" y="246" width="17" height="47" rx="2" fill="#CCD4DE"/><rect x="78" y="249" width="15" height="44" rx="2" fill="#FFFFFF"/><rect x="96" y="238" width="13" height="55" rx="2" fill="#E67E42"/><rect x="112" y="241" width="20" height="52" rx="2" fill="#FFE2D1"/><rect x="135" y="244" width="18" height="49" rx="2" fill="#EEF2F7"/><rect x="156" y="247" width="16" height="46" rx="2" fill="#FF8B48"/><rect x="52" y="378" width="106" height="8" fill="#002959"/><rect x="58" y="328" width="13" height="50" rx="2" fill="#FFFFFF"/><rect x="74" y="331" width="20" height="47" rx="2" fill="#E67E42"/><rect x="97" y="334" width="18" height="44" rx="2" fill="#FFE2D1"/><rect x="118" y="323" width="16" height="55" rx="2" fill="#EEF2F7"/><rect x="137" y="326" width="14" height="52" rx="2" fill="#FF8B48"/><rect x="154" y="329" width="12" height="49" rx="2" fill="#FF8B48"/><g transform="translate(105,120) scale(0.8)"><ellipse cx="-14" cy="-62" rx="10" ry="26" fill="#2E8B57" transform="rotate(-25 -14 -62)"/><ellipse cx="14" cy="-62" rx="10" ry="26" fill="#2E8B57" transform="rotate(25 14 -62)"/><ellipse cx="0" cy="-72" rx="10" ry="30" fill="#3A9E68"/><path d="M-22,-40 L22,-40 L17,0 L-17,0 Z" fill="#FF8B48"/><rect x="-24" y="-44" width="48" height="8" rx="3" fill="#E67E42"/></g><rect x="205" y="70" width="95" height="120" rx="8" fill="#FFFFFF"/><circle cx="282.0" cy="122.0" r="4.5" fill="#FF8B48"/><circle cx="278.0" cy="137.0" r="4.5" fill="#FF8B48"/><circle cx="267.0" cy="148.0" r="4.5" fill="#FF8B48"/><circle cx="252.0" cy="152.0" r="4.5" fill="#FF8B48"/><circle cx="237.0" cy="148.0" r="4.5" fill="#FF8B48"/><circle cx="226.0" cy="137.0" r="4.5" fill="#FF8B48"/><circle cx="222.0" cy="122.0" r="4.5" fill="#FF8B48"/><circle cx="226.0" cy="107.0" r="4.5" fill="#FF8B48"/><circle cx="237.0" cy="96.0" r="4.5" fill="#FF8B48"/><circle cx="252.0" cy="92.0" r="4.5" fill="#FF8B48"/><circle cx="267.0" cy="96.0" r="4.5" fill="#FF8B48"/><circle cx="278.0" cy="107.0" r="4.5" fill="#FF8B48"/><rect x="222" y="165" width="60" height="7" rx="3" fill="#CCD4DE"/><rect x="330" y="40" width="470" height="245" rx="14" fill="#33547A"/><rect x="340" y="50" width="450" height="225" rx="8" fill="#FFFFFF"/><rect x="420" y="283" width="290" height="10" rx="4" fill="#33547A"/><rect x="460" y="277" width="26" height="8" rx="3" fill="#FF8B48"/><rect x="495" y="277" width="26" height="8" rx="3" fill="#002959"/><path d="M525,258 L605,258 L587,244 L543,244 Z" fill="#002959"/><rect x="560" y="96" width="10" height="150" fill="#002959"/><circle cx="565" cy="92" r="11" fill="#FF8B48"/><line x1="415" y1="100" x2="715" y2="84" stroke="#002959" stroke-width="8" stroke-linecap="round"/><line x1="415" y1="100" x2="367" y2="180" stroke="#33547A" stroke-width="3"/><line x1="415" y1="100" x2="463" y2="180" stroke="#33547A" stroke-width="3"/><path d="M355,180 L475,180 Q465,208 415,208 Q365,208 355,180 Z" fill="#FF8B48"/><text x="516" y="206" font-family="Arial, Helvetica, sans-serif" font-size="26" font-weight="bold" fill="#002959" text-anchor="middle">Kasu</text><path d="M387,162 c-10,-12 -26,0 -14,12 l14,12 l14,-12 c12,-12 -4,-24 -14,-12 z" fill="#E67E42"/><path d="M437,145 Q441.2,155.8 452,160 Q441.2,164.2 437,175 Q432.8,164.2 422,160 Q432.8,155.8 437,145 Z" fill="#002959"/><line x1="715" y1="84" x2="667" y2="164" stroke="#33547A" stroke-width="3"/><line x1="715" y1="84" x2="763" y2="164" stroke="#33547A" stroke-width="3"/><path d="M655,164 L775,164 Q765,192 715,192 Q665,192 655,164 Z" fill="#33547A"/><text x="612" y="190" font-family="Arial, Helvetica, sans-serif" font-size="26" font-weight="bold" fill="#002959" text-anchor="middle">Risk</text><path d="M693,132 L713,162 L673,162 Z" fill="#FF8B48" stroke="#FF8B48" stroke-width="5" stroke-linejoin="round"/><rect x="691" y="140" width="4" height="12" fill="#FFFFFF"/><circle cx="693" cy="157" r="2.4" fill="#FFFFFF"/><ellipse cx="739" cy="150" rx="18" ry="11" fill="#002959"/><circle cx="739" cy="150" r="6" fill="#FFFFFF"/><circle cx="739" cy="150" r="3" fill="#002959"/><rect x="360" y="66" width="34" height="34" rx="3" fill="#FFE2D1" stroke="#FF8B48" stroke-width="2"/><line x1="367" y1="78" x2="387" y2="78" stroke="#E67E42" stroke-width="3"/><line x1="367" y1="87" x2="382" y2="87" stroke="#E67E42" stroke-width="3"/><rect x="850" y="40" width="310" height="250" rx="14" fill="#33547A"/><rect x="862" y="52" width="286" height="226" rx="6" fill="#FFF4EC"/><circle cx="1090" cy="100" r="26" fill="#FFE2D1"/><ellipse cx="930" cy="95" rx="40" ry="12" fill="#FFFFFF"/><g transform="translate(870,278) scale(1.05)" fill="#CCD4DE"><rect x="0" y="-40" width="266.66666666666663" height="40"/><rect x="20" y="-75" width="26" height="40"/><polygon points="17,-75 49,-75 33,-100"/><rect x="70" y="-110" width="20" height="75"/><polygon points="68,-110 92,-110 80,-170"/><rect x="110" y="-62" width="40" height="30"/><polygon points="108,-62 152,-62 130,-82"/><rect x="165" y="-90" width="22" height="55"/><polygon points="162,-90 190,-90 176,-118"/><rect x="200" y="-58" width="50" height="22"/></g><g transform="translate(980,278) scale(0.7)" fill="#AEBACB"><rect x="0" y="-40" width="242.85714285714286" height="40"/><rect x="20" y="-75" width="26" height="40"/><polygon points="17,-75 49,-75 33,-100"/><rect x="70" y="-110" width="20" height="75"/><polygon points="68,-110 92,-110 80,-170"/><rect x="110" y="-62" width="40" height="30"/><polygon points="108,-62 152,-62 130,-82"/><rect x="165" y="-90" width="22" height="55"/><polygon points="162,-90 190,-90 176,-118"/><rect x="200" y="-58" width="50" height="22"/></g><rect x="1001" y="52" width="8" height="226" fill="#33547A"/><rect x="862" y="160" width="286" height="7" fill="#33547A"/><rect x="845" y="286" width="320" height="12" rx="4" fill="#002959"/><g transform="translate(235,372) scale(1.0,1.0)"><g transform="translate(0,87)"><rect x="-31" y="-178" width="62" height="92" rx="24" fill="#33547A"/><path d="M-31,-120 L31,-120 L31,-110 Q31,-86 7,-86 L-7,-86 Q-31,-86 -31,-110 Z" fill="#002959" opacity="0.10"/><rect x="-7" y="-188" width="14" height="16" fill="#F2C9A5"/><path d="M-25,-165 L-36,-140 L-30,-120" stroke="#33547A" stroke-width="16" fill="none" stroke-linecap="round" stroke-linejoin="round"/><circle cx="-30" cy="-120" r="8.5" fill="#F2C9A5"/><path d="M25,-165 L40,-140 L58,-120" stroke="#33547A" stroke-width="16" fill="none" stroke-linecap="round" stroke-linejoin="round"/><circle cx="58" cy="-120" r="8.5" fill="#F2C9A5"/><circle cx="0" cy="-206" r="25" fill="#F2C9A5"/><path d="M-26,-200 C-31,-242 31,-242 26,-200 C20,-219 -20,-219 -26,-200 Z" fill="#B8BEC8"/><circle cx="-5" cy="-203" r="2.8" fill="#002959"/><circle cx="11" cy="-203" r="2.8" fill="#002959"/><path d="M-3,-193 Q3,-189 9,-193" stroke="#002959" stroke-width="2" fill="none" stroke-linecap="round" opacity="0.6"/></g></g><g transform="translate(375,372) scale(0.92,0.92)"><g transform="translate(0,87)"><rect x="-31" y="-178" width="62" height="92" rx="24" fill="#FF8B48"/><path d="M-31,-120 L31,-120 L31,-110 Q31,-86 7,-86 L-7,-86 Q-31,-86 -31,-110 Z" fill="#002959" opacity="0.10"/><rect x="-7" y="-188" width="14" height="16" fill="#A8714B"/><path d="M-25,-165 L-36,-125 L-32,-96" stroke="#FF8B48" stroke-width="16" fill="none" stroke-linecap="round" stroke-linejoin="round"/><circle cx="-32" cy="-96" r="8.5" fill="#A8714B"/><path d="M25,-165 L52,-190 L60,-228" stroke="#FF8B48" stroke-width="16" fill="none" stroke-linecap="round" stroke-linejoin="round"/><circle cx="60" cy="-228" r="8.5" fill="#A8714B"/><path d="M-34,-200 C-36,-248 36,-248 34,-200 L36,-168 Q0,-160 -36,-168 Z" fill="#CCD4DE"/><circle cx="0" cy="-205" r="21" fill="#A8714B"/><circle cx="-6" cy="-203" r="2.8" fill="#002959"/><circle cx="10" cy="-203" r="2.8" fill="#002959"/><path d="M-4,-193 Q2,-189 8,-193" stroke="#002959" stroke-width="2" fill="none" stroke-linecap="round" opacity="0.6"/></g></g><g transform="translate(515,372) scale(0.95,0.95)"><g transform="translate(0,87)"><rect x="-31" y="-178" width="62" height="92" rx="24" fill="#CCD4DE"/><path d="M-31,-120 L31,-120 L31,-110 Q31,-86 7,-86 L-7,-86 Q-31,-86 -31,-110 Z" fill="#002959" opacity="0.10"/><rect x="-7" y="-188" width="14" height="16" fill="#D9A27C"/><path d="M-25,-165 L-38,-140 L-26,-120" stroke="#CCD4DE" stroke-width="16" fill="none" stroke-linecap="round" stroke-linejoin="round"/><circle cx="-26" cy="-120" r="8.5" fill="#D9A27C"/><path d="M25,-165 L38,-140 L24,-120" stroke="#CCD4DE" stroke-width="16" fill="none" stroke-linecap="round" stroke-linejoin="round"/><circle cx="24" cy="-120" r="8.5" fill="#D9A27C"/><circle cx="0" cy="-206" r="25" fill="#D9A27C"/><path d="M-26,-200 C-31,-242 31,-242 26,-200 C20,-219 -20,-219 -26,-200 Z" fill="#D9A64E"/><ellipse cx="-29" cy="-210" rx="9" ry="16" fill="#D9A64E"/><circle cx="-4" cy="-203" r="2.8" fill="#002959"/><circle cx="12" cy="-203" r="2.8" fill="#002959"/><path d="M-2,-193 Q4,-189 10,-193" stroke="#002959" stroke-width="2" fill="none" stroke-linecap="round" opacity="0.6"/></g></g><g transform="translate(985,372) scale(0.95,0.95)"><g transform="translate(0,87)"><rect x="-31" y="-178" width="62" height="92" rx="24" fill="#FF8B48"/><path d="M-31,-120 L31,-120 L31,-110 Q31,-86 7,-86 L-7,-86 Q-31,-86 -31,-110 Z" fill="#002959" opacity="0.10"/><rect x="-7" y="-188" width="14" height="16" fill="#6B4429"/><path d="M-25,-165 L-42,-140 L-48,-118" stroke="#FF8B48" stroke-width="16" fill="none" stroke-linecap="round" stroke-linejoin="round"/><circle cx="-48" cy="-118" r="8.5" fill="#6B4429"/><path d="M25,-165 L36,-125 L32,-96" stroke="#FF8B48" stroke-width="16" fill="none" stroke-linecap="round" stroke-linejoin="round"/><circle cx="32" cy="-96" r="8.5" fill="#6B4429"/><circle cx="0" cy="-206" r="25" fill="#6B4429"/><circle cx="-22" cy="-212" r="11" fill="#14161C"/><circle cx="-14" cy="-226" r="11" fill="#14161C"/><circle cx="0" cy="-232" r="11" fill="#14161C"/><circle cx="14" cy="-226" r="11" fill="#14161C"/><circle cx="22" cy="-212" r="11" fill="#14161C"/><circle cx="-7" cy="-222" r="11" fill="#14161C"/><circle cx="8" cy="-222" r="11" fill="#14161C"/><circle cx="-12" cy="-203" r="2.8" fill="#002959"/><circle cx="4" cy="-203" r="2.8" fill="#002959"/><path d="M-10,-193 Q-4,-189 2,-193" stroke="#002959" stroke-width="2" fill="none" stroke-linecap="round" opacity="0.6"/></g></g><g transform="translate(1110,372) scale(1.0,1.0)"><g transform="translate(0,87)"><rect x="-31" y="-178" width="62" height="92" rx="24" fill="#002959"/><path d="M-31,-120 L31,-120 L31,-110 Q31,-86 7,-86 L-7,-86 Q-31,-86 -31,-110 Z" fill="#002959" opacity="0.10"/><rect x="-7" y="-188" width="14" height="16" fill="#F2C9A5"/><path d="M-25,-165 L-40,-140 L-50,-120" stroke="#002959" stroke-width="16" fill="none" stroke-linecap="round" stroke-linejoin="round"/><circle cx="-50" cy="-120" r="8.5" fill="#F2C9A5"/><path d="M25,-165 L36,-125 L32,-96" stroke="#002959" stroke-width="16" fill="none" stroke-linecap="round" stroke-linejoin="round"/><circle cx="32" cy="-96" r="8.5" fill="#F2C9A5"/><rect x="-30" y="-228" width="60" height="70" rx="26" fill="#B5532B"/><circle cx="0" cy="-206" r="25" fill="#F2C9A5"/><path d="M-26,-200 C-31,-242 31,-242 26,-200 C20,-219 -20,-219 -26,-200 Z" fill="#B5532B"/><circle cx="-12" cy="-203" r="2.8" fill="#002959"/><circle cx="4" cy="-203" r="2.8" fill="#002959"/><path d="M-10,-193 Q-4,-189 2,-193" stroke="#002959" stroke-width="2" fill="none" stroke-linecap="round" opacity="0.6"/></g></g><g transform="translate(845,470) scale(1.02,1.02)"><rect x="-23" y="-98" width="20" height="98" rx="9" fill="#33547A"/><rect x="3" y="-98" width="20" height="98" rx="9" fill="#33547A"/><ellipse cx="-14" cy="-3" rx="15" ry="7" fill="#1E2430"/><ellipse cx="14" cy="-3" rx="15" ry="7" fill="#1E2430"/><g transform="translate(0,0)"><rect x="-31" y="-178" width="62" height="92" rx="24" fill="#002959"/><path d="M-31,-120 L31,-120 L31,-110 Q31,-86 7,-86 L-7,-86 Q-31,-86 -31,-110 Z" fill="#002959" opacity="0.10"/><rect x="-7" y="-188" width="14" height="16" fill="#D9A27C"/><path d="M-25,-165 L-62,-190 L-100,-222" stroke="#002959" stroke-width="16" fill="none" stroke-linecap="round" stroke-linejoin="round"/><circle cx="-100" cy="-222" r="8.5" fill="#D9A27C"/><path d="M25,-165 L38,-130 L36,-100" stroke="#002959" stroke-width="16" fill="none" stroke-linecap="round" stroke-linejoin="round"/><circle cx="36" cy="-100" r="8.5" fill="#D9A27C"/><circle cx="0" cy="-206" r="25" fill="#D9A27C"/><path d="M-26,-200 C-31,-242 31,-242 26,-200 C20,-219 -20,-219 -26,-200 Z" fill="#2B2118"/><circle cx="0" cy="-237" r="12" fill="#2B2118"/><circle cx="-13" cy="-203" r="2.8" fill="#002959"/><circle cx="3" cy="-203" r="2.8" fill="#002959"/><path d="M-11,-193 Q-5,-189 1,-193" stroke="#002959" stroke-width="2" fill="none" stroke-linecap="round" opacity="0.6"/></g></g><rect x="170" y="196" width="70" height="46" rx="23.0" fill="#FFFFFF" stroke="#CCD4DE" stroke-width="2"/><path d="M194.5,240 L215,250 L212.0,240 Z" fill="#FFFFFF"/><text x="205" y="229" font-family="Arial, Helvetica, sans-serif" font-size="28" font-weight="bold" fill="#FF8B48" text-anchor="middle">?</text><rect x="1040" y="180" width="80" height="46" rx="23.0" fill="#FFF4EC" stroke="#CCD4DE" stroke-width="2"/><path d="M1068.0,224 L1085,236 L1088.0,224 Z" fill="#FFF4EC"/><circle cx="1064" cy="203" r="5" fill="#FF8B48"/><circle cx="1080" cy="203" r="5" fill="#FF8B48"/><circle cx="1096" cy="203" r="5" fill="#FF8B48"/><path d="M150,352 L1080,352 L1110,392 L120,392 Z" fill="#FFE2D1"/><rect x="118" y="390" width="994" height="16" rx="5" fill="#FF8B48"/><rect x="170" y="404" width="16" height="104" fill="#002959"/><rect x="1044" y="404" width="16" height="104" fill="#002959"/><rect x="600" y="404" width="16" height="104" fill="#33547A"/><ellipse cx="615" cy="512" rx="500" ry="8" fill="#002959" opacity="0.10"/><path d="M600,300 L720,300 L715,366 L605,366 Z" fill="#33547A"/><path d="M660,319 Q663.92,329.08 674,333 Q663.92,336.92 660,347 Q656.08,336.92 646,333 Q656.08,329.08 660,319 Z" fill="#FFE2D1"/><rect x="585" y="364" width="150" height="9" rx="3" fill="#002959"/><path d="M265,362 L330,358 L336,382 L268,386 Z" fill="#FFFFFF"/><line x1="276" y1="368" x2="322" y2="365" stroke="#CCD4DE" stroke-width="3"/><line x1="277" y1="376" x2="314" y2="374" stroke="#CCD4DE" stroke-width="3"/><path d="M430,362 L505,362 L509,384 L426,384 Z" fill="#FFFFFF"/><line x1="438" y1="369" x2="495" y2="369" stroke="#CCD4DE" stroke-width="3"/><line x1="438" y1="377" x2="484" y2="377" stroke="#CCD4DE" stroke-width="3"/><rect x="200" y="350" width="24" height="28" rx="5" fill="#FF8B48"/><path d="M224,356 q12,0 12,9 q0,9 -12,9" stroke="#FF8B48" stroke-width="5" fill="none"/><rect x="930" y="350" width="24" height="28" rx="5" fill="#33547A"/><path d="M954,356 q12,0 12,9 q0,9 -12,9" stroke="#33547A" stroke-width="5" fill="none"/><rect x="1060" y="350" width="24" height="28" rx="5" fill="#FFFFFF"/><path d="M1084,356 q12,0 12,9 q0,9 -12,9" stroke="#FFFFFF" stroke-width="5" fill="none"/><rect x="860" y="364" width="62" height="20" rx="4" fill="#002959"/><rect x="866" y="367" width="50" height="14" rx="2" fill="#EEF2F7"/><line x1="345" y1="378" x2="395" y2="372" stroke="#002959" stroke-width="5" stroke-linecap="round"/></g></svg>