<svg xmlns="http://www.w3.org/2000/svg" width="1200" height="520" viewBox="0 0 1200 520"><defs><clipPath id="frame"><rect width="1200" height="520" rx="24"/></clipPath></defs><g clip-path="url(#frame)"><rect width="1200" height="520" fill="#EEF2F7"/><rect x="0" y="440" width="1200" height="80" fill="#CCD4DE"/><rect x="0" y="436" width="1200" height="8" fill="#33547A" opacity="0.25"/><rect x="0" y="300" width="580" height="136" fill="#CCD4DE" opacity="0.45"/><circle cx="300" cy="90" r="36" fill="#FFFFFF" stroke="#002959" stroke-width="6"/><line x1="300" y1="90" x2="300" y2="66" stroke="#002959" stroke-width="4" stroke-linecap="round"/><line x1="300" y1="90" x2="317" y2="98" stroke="#FF8B48" stroke-width="4" stroke-linecap="round"/><rect x="420" y="60" width="110" height="80" rx="6" fill="#FFFFFF" stroke="#33547A" stroke-width="5"/><path d="M430,130 L465,92 L490,118 L505,104 L522,130 Z" fill="#CCD4DE"/><circle cx="505" cy="80" r="8" fill="#FF8B48"/><rect x="40" y="70" width="130" height="236" rx="6" fill="#33547A"/><rect x="52" y="82" width="106" height="100" rx="4" fill="#EEF2F7" opacity="0.35"/><circle cx="148" cy="210" r="6" fill="#FF8B48"/><rect x="70" y="260" width="80" height="100" rx="14" fill="#002959"/><rect x="200" y="260" width="80" height="100" rx="14" fill="#002959"/><rect x="330" y="260" width="80" height="100" rx="14" fill="#002959"/><g transform="translate(110,365) scale(0.95,0.95)"><ellipse cx="0" cy="92" rx="44" ry="7" fill="#002959" opacity="0.12"/><rect x="-30" y="-6" width="60" height="22" rx="10" fill="#002959"/><rect x="-26" y="4" width="20" height="84" rx="9" fill="#002959"/><rect x="6" y="4" width="20" height="84" rx="9" fill="#002959"/><ellipse cx="-17" cy="87" rx="15" ry="7" fill="#1E2430"/><ellipse cx="17" cy="87" rx="15" ry="7" fill="#1E2430"/><g transform="translate(0,87)"><rect x="-31" y="-178" width="62" height="92" rx="24" fill="#FF8B48"/><path d="M-31,-120 L31,-120 L31,-110 Q31,-86 7,-86 L-7,-86 Q-31,-86 -31,-110 Z" fill="#002959" opacity="0.10"/><rect x="-7" y="-188" width="14" height="16" fill="#A8714B"/><path d="M-25,-165 L-34,-125 L-12,-98" stroke="#FF8B48" stroke-width="16" fill="none" stroke-linecap="round" stroke-linejoin="round"/><circle cx="-12" cy="-98" r="8.5" fill="#A8714B"/><path d="M25,-165 L34,-125 L12,-98" stroke="#FF8B48" stroke-width="16" fill="none" stroke-linecap="round" stroke-linejoin="round"/><circle cx="12" cy="-98" r="8.5" fill="#A8714B"/><path d="M-34,-200 C-36,-248 36,-248 34,-200 L36,-168 Q0,-160 -36,-168 Z" fill="#CCD4DE"/><circle cx="0" cy="-205" r="21" fill="#A8714B"/><circle cx="-3" cy="-203" r="2.8" fill="#002959"/><circle cx="13" cy="-203" r="2.8" fill="#002959"/><path d="M-1,-193 Q5,-189 11,-193" stroke="#002959" stroke-width="2" fill="none" stroke-linecap="round" opacity="0.6"/></g></g><rect x="86" y="330" width="48" height="34" rx="4" fill="#FFFFFF" stroke="#33547A" stroke-width="3"/><rect x="94" y="340" width="20" height="4" rx="2" fill="#CCD4DE"/><rect x="94" y="350" width="30" height="4" rx="2" fill="#CCD4DE"/><g transform="translate(240,365) scale(0.95,0.95)"><ellipse cx="0" cy="92" rx="44" ry="7" fill="#002959" opacity="0.12"/><rect x="-30" y="-6" width="60" height="22" rx="10" fill="#002959"/><rect x="-26" y="4" width="20" height="84" rx="9" fill="#002959"/><rect x="6" y="4" width="20" height="84" rx="9" fill="#002959"/><ellipse cx="-17" cy="87" rx="15" ry="7" fill="#1E2430"/><ellipse cx="17" cy="87" rx="15" ry="7" fill="#1E2430"/><g transform="translate(0,87)"><rect x="-31" y="-178" width="62" height="92" rx="24" fill="#33547A"/><path d="M-31,-120 L31,-120 L31,-110 Q31,-86 7,-86 L-7,-86 Q-31,-86 -31,-110 Z" fill="#002959" opacity="0.10"/><rect x="-7" y="-188" width="14" height="16" fill="#F2C9A5"/><path d="M-25,-165 L-34,-125 L-12,-98" stroke="#33547A" stroke-width="16" fill="none" stroke-linecap="round" stroke-linejoin="round"/><circle cx="-12" cy="-98" r="8.5" fill="#F2C9A5"/><path d="M25,-165 L34,-125 L12,-98" stroke="#33547A" stroke-width="16" fill="none" stroke-linecap="round" stroke-linejoin="round"/><circle cx="12" cy="-98" r="8.5" fill="#F2C9A5"/><circle cx="0" cy="-206" r="25" fill="#F2C9A5"/><path d="M-26,-200 C-31,-242 31,-242 26,-200 C20,-219 -20,-219 -26,-200 Z" fill="#B8BEC8"/><circle cx="-3" cy="-203" r="2.8" fill="#002959"/><circle cx="13" cy="-203" r="2.8" fill="#002959"/><path d="M-1,-193 Q5,-189 11,-193" stroke="#002959" stroke-width="2" fill="none" stroke-linecap="round" opacity="0.6"/></g></g><rect x="216" y="330" width="48" height="34" rx="4" fill="#FFFFFF" stroke="#33547A" stroke-width="3"/><rect x="224" y="340" width="20" height="4" rx="2" fill="#CCD4DE"/><rect x="224" y="350" width="30" height="4" rx="2" fill="#CCD4DE"/><g transform="translate(370,365) scale(0.95,0.95)"><ellipse cx="0" cy="92" rx="44" ry="7" fill="#002959" opacity="0.12"/><rect x="-30" y="-6" width="60" height="22" rx="10" fill="#33547A"/><rect x="-26" y="4" width="20" height="84" rx="9" fill="#33547A"/><rect x="6" y="4" width="20" height="84" rx="9" fill="#33547A"/><ellipse cx="-17" cy="87" rx="15" ry="7" fill="#1E2430"/><ellipse cx="17" cy="87" rx="15" ry="7" fill="#1E2430"/><g transform="translate(0,87)"><rect x="-31" y="-178" width="62" height="92" rx="24" fill="#FFE2D1"/><path d="M-31,-120 L31,-120 L31,-110 Q31,-86 7,-86 L-7,-86 Q-31,-86 -31,-110 Z" fill="#002959" opacity="0.10"/><rect x="-7" y="-188" width="14" height="16" fill="#6B4429"/><path d="M-25,-165 L-34,-125 L-12,-98" stroke="#FFE2D1" stroke-width="16" fill="none" stroke-linecap="round" stroke-linejoin="round"/><circle cx="-12" cy="-98" r="8.5" fill="#6B4429"/><path d="M25,-165 L34,-125 L12,-98" stroke="#FFE2D1" stroke-width="16" fill="none" stroke-linecap="round" stroke-linejoin="round"/><circle cx="12" cy="-98" r="8.5" fill="#6B4429"/><circle cx="-24" cy="-190" r="14" fill="#14161C"/><circle cx="24" cy="-190" r="14" fill="#14161C"/><circle cx="-26" cy="-172" r="12" fill="#14161C"/><circle cx="26" cy="-172" r="12" fill="#14161C"/><circle cx="0" cy="-206" r="25" fill="#6B4429"/><circle cx="-22" cy="-212" r="11" fill="#14161C"/><circle cx="-14" cy="-226" r="11" fill="#14161C"/><circle cx="0" cy="-232" r="11" fill="#14161C"/><circle cx="14" cy="-226" r="11" fill="#14161C"/><circle cx="22" cy="-212" r="11" fill="#14161C"/><circle cx="-7" cy="-222" r="11" fill="#14161C"/><circle cx="8" cy="-222" r="11" fill="#14161C"/><circle cx="-3" cy="-203" r="2.8" fill="#002959"/><circle cx="13" cy="-203" r="2.8" fill="#002959"/><path d="M-1,-193 Q5,-189 11,-193" stroke="#002959" stroke-width="2" fill="none" stroke-linecap="round" opacity="0.6"/></g></g><rect x="346" y="330" width="48" height="34" rx="4" fill="#FFFFFF" stroke="#33547A" stroke-width="3"/><rect x="354" y="340" width="20" height="4" rx="2" fill="#CCD4DE"/><rect x="354" y="350" width="30" height="4" rx="2" fill="#CCD4DE"/><rect x="65" y="364" width="90" height="12" rx="5" fill="#002959"/><rect x="72" y="374" width="8" height="66" fill="#002959"/><rect x="140" y="374" width="8" height="66" fill="#002959"/><rect x="195" y="364" width="90" height="12" rx="5" fill="#002959"/><rect x="202" y="374" width="8" height="66" fill="#002959"/><rect x="270" y="374" width="8" height="66" fill="#002959"/><rect x="325" y="364" width="90" height="12" rx="5" fill="#002959"/><rect x="332" y="374" width="8" height="66" fill="#002959"/><rect x="400" y="374" width="8" height="66" fill="#002959"/><rect x="457" y="270" width="76" height="90" rx="12" fill="#33547A"/><g transform="translate(495,365) scale(0.95,0.95)"><ellipse cx="0" cy="92" rx="44" ry="7" fill="#002959" opacity="0.12"/><rect x="-30" y="-6" width="60" height="22" rx="10" fill="#33547A"/><rect x="-26" y="4" width="20" height="84" rx="9" fill="#33547A"/><rect x="6" y="4" width="20" height="84" rx="9" fill="#33547A"/><ellipse cx="-17" cy="87" rx="15" ry="7" fill="#1E2430"/><ellipse cx="17" cy="87" rx="15" ry="7" fill="#1E2430"/><g transform="translate(0,87)"><rect x="-31" y="-178" width="62" height="92" rx="24" fill="#002959"/><path d="M-31,-120 L31,-120 L31,-110 Q31,-86 7,-86 L-7,-86 Q-31,-86 -31,-110 Z" fill="#002959" opacity="0.10"/><rect x="-7" y="-188" width="14" height="16" fill="#D9A27C"/><path d="M-25,-165 L-34,-125 L-12,-98" stroke="#002959" stroke-width="16" fill="none" stroke-linecap="round" stroke-linejoin="round"/><circle cx="-12" cy="-98" r="8.5" fill="#D9A27C"/><path d="M25,-165 L34,-125 L12,-98" stroke="#002959" stroke-width="16" fill="none" stroke-linecap="round" stroke-linejoin="round"/><circle cx="12" cy="-98" r="8.5" fill="#D9A27C"/><circle cx="0" cy="-206" r="25" fill="#D9A27C"/><path d="M-26,-200 C-31,-242 31,-242 26,-200 C20,-219 -20,-219 -26,-200 Z" fill="#6B4429"/><ellipse cx="-29" cy="-210" rx="9" ry="16" fill="#6B4429"/><circle cx="-3" cy="-203" r="2.8" fill="#002959"/><circle cx="13" cy="-203" r="2.8" fill="#002959"/><path d="M-1,-193 Q5,-189 11,-193" stroke="#002959" stroke-width="2" fill="none" stroke-linecap="round" opacity="0.6"/></g></g><rect x="471" y="330" width="48" height="34" rx="4" fill="#FFFFFF" stroke="#33547A" stroke-width="3"/><rect x="479" y="340" width="20" height="4" rx="2" fill="#CCD4DE"/><rect x="479" y="350" width="30" height="4" rx="2" fill="#CCD4DE"/><ellipse cx="449" cy="400" rx="12" ry="46" fill="#002959"/><ellipse cx="449" cy="400" rx="5" ry="34" fill="#33547A"/><ellipse cx="541" cy="400" rx="12" ry="46" fill="#002959"/><ellipse cx="541" cy="400" rx="5" ry="34" fill="#33547A"/><rect x="451" y="364" width="88" height="10" rx="4" fill="#002959"/><circle cx="465" cy="444" r="7" fill="#002959"/><circle cx="525" cy="444" r="7" fill="#002959"/><g transform="translate(580,440) scale(1.0)"><ellipse cx="-14" cy="-62" rx="10" ry="26" fill="#2E8B57" transform="rotate(-25 -14 -62)"/><ellipse cx="14" cy="-62" rx="10" ry="26" fill="#2E8B57" transform="rotate(25 14 -62)"/><ellipse cx="0" cy="-72" rx="10" ry="30" fill="#3A9E68"/><path d="M-22,-40 L22,-40 L17,0 L-17,0 Z" fill="#FF8B48"/><rect x="-24" y="-44" width="48" height="8" rx="3" fill="#E67E42"/></g><rect x="618" y="38" width="560" height="320" rx="18" fill="#002959" opacity="0.12"/><rect x="610" y="30" width="560" height="320" rx="18" fill="#002959"/><rect x="624" y="44" width="532" height="292" rx="10" fill="#FFFFFF"/><rect x="870" y="350" width="40" height="40" fill="#33547A"/><rect x="830" y="388" width="120" height="12" rx="5" fill="#33547A"/><rect x="650" y="64" width="58" height="74" rx="6" fill="#EEF2F7" stroke="#CCD4DE" stroke-width="2"/><circle cx="679.0" cy="84" r="10" fill="#A8714B"/><path d="M668.0,79 Q679.0,66 690.0,79 Z" fill="#33547A"/><path d="M664.0,106 Q679.0,90 694.0,106 Z" fill="#FF8B48"/><rect x="659" y="114" width="40" height="5" rx="2" fill="#CCD4DE"/><rect x="659" y="124" width="30" height="5" rx="2" fill="#CCD4DE"/><rect x="716" y="64" width="58" height="74" rx="6" fill="#EEF2F7" stroke="#CCD4DE" stroke-width="2"/><circle cx="745.0" cy="84" r="10" fill="#F2C9A5"/><path d="M734.0,79 Q745.0,66 756.0,79 Z" fill="#B8BEC8"/><path d="M730.0,106 Q745.0,90 760.0,106 Z" fill="#33547A"/><rect x="725" y="114" width="40" height="5" rx="2" fill="#CCD4DE"/><rect x="725" y="124" width="30" height="5" rx="2" fill="#CCD4DE"/><rect x="650" y="156" width="58" height="74" rx="6" fill="#EEF2F7" stroke="#CCD4DE" stroke-width="2"/><circle cx="679.0" cy="176" r="10" fill="#6B4429"/><path d="M668.0,171 Q679.0,158 690.0,171 Z" fill="#14161C"/><path d="M664.0,198 Q679.0,182 694.0,198 Z" fill="#FFE2D1"/><rect x="659" y="206" width="40" height="5" rx="2" fill="#CCD4DE"/><rect x="659" y="216" width="30" height="5" rx="2" fill="#CCD4DE"/><rect x="716" y="156" width="58" height="74" rx="6" fill="#EEF2F7" stroke="#CCD4DE" stroke-width="2"/><circle cx="745.0" cy="176" r="10" fill="#D9A27C"/><path d="M734.0,171 Q745.0,158 756.0,171 Z" fill="#6B4429"/><path d="M730.0,198 Q745.0,182 760.0,198 Z" fill="#002959"/><rect x="725" y="206" width="40" height="5" rx="2" fill="#CCD4DE"/><rect x="725" y="216" width="30" height="5" rx="2" fill="#CCD4DE"/><rect x="683" y="248" width="58" height="74" rx="6" fill="#EEF2F7" stroke="#CCD4DE" stroke-width="2"/><circle cx="712.0" cy="268" r="10" fill="#D9A27C"/><path d="M701.0,263 Q712.0,250 723.0,263 Z" fill="#D9A64E"/><path d="M697.0,290 Q712.0,274 727.0,290 Z" fill="#FF8B48"/><rect x="692" y="298" width="40" height="5" rx="2" fill="#CCD4DE"/><rect x="692" y="308" width="30" height="5" rx="2" fill="#CCD4DE"/><path d="M790,180 L812,180" stroke="#33547A" stroke-width="5" stroke-linecap="round"/><path d="M808,170 L820,180 L808,190 Z" fill="#33547A"/><path d="M826,96 L946,96 L900,190 L900,236 L872,236 L872,190 Z" fill="#FFE2D1" stroke="#FF8B48" stroke-width="4" stroke-linejoin="round"/><ellipse cx="886" cy="96" rx="60" ry="10" fill="#FF8B48"/><path d="M886,120 Q891.6,134.4 906,140 Q891.6,145.6 886,160 Q880.4,145.6 866,140 Q880.4,134.4 886,120 Z" fill="#FF8B48"/><rect x="838" y="262" width="44" height="56" rx="6" fill="#EEF2F7" stroke="#CCD4DE" stroke-width="2"/><circle cx="860.0" cy="282" r="10" fill="#6B4429"/><path d="M849.0,277 Q860.0,264 871.0,277 Z" fill="#14161C"/><path d="M845.0,304 Q860.0,288 875.0,304 Z" fill="#FFE2D1"/><rect x="847" y="312" width="26" height="5" rx="2" fill="#CCD4DE"/><rect x="847" y="322" width="16" height="5" rx="2" fill="#CCD4DE"/><circle cx="878" cy="266" r="11" fill="#33547A"/><path d="M873,261 l10,10 M883,261 l-10,10" stroke="#FFFFFF" stroke-width="3" stroke-linecap="round"/><rect x="892" y="272" width="44" height="56" rx="6" fill="#EEF2F7" stroke="#CCD4DE" stroke-width="2"/><circle cx="914.0" cy="292" r="10" fill="#A8714B"/><path d="M903.0,287 Q914.0,274 925.0,287 Z" fill="#33547A"/><path d="M899.0,314 Q914.0,298 929.0,314 Z" fill="#FF8B48"/><rect x="901" y="322" width="26" height="5" rx="2" fill="#CCD4DE"/><rect x="901" y="332" width="16" height="5" rx="2" fill="#CCD4DE"/><circle cx="932" cy="276" r="11" fill="#33547A"/><path d="M927,271 l10,10 M937,271 l-10,10" stroke="#FFFFFF" stroke-width="3" stroke-linecap="round"/><path d="M886,240 L886,256" stroke="#33547A" stroke-width="3" stroke-dasharray="4 4"/><path d="M908,214 L948,214" stroke="#33547A" stroke-width="5" stroke-linecap="round"/><path d="M944,204 L956,214 L944,224 Z" fill="#33547A"/><rect x="968" y="214" width="54" height="70" rx="6" fill="#EEF2F7" stroke="#CCD4DE" stroke-width="2"/><circle cx="995.0" cy="234" r="10" fill="#F2C9A5"/><path d="M984.0,229 Q995.0,216 1006.0,229 Z" fill="#6B4429"/><path d="M980.0,256 Q995.0,240 1010.0,256 Z" fill="#002959"/><rect x="977" y="264" width="36" height="5" rx="2" fill="#CCD4DE"/><rect x="977" y="274" width="26" height="5" rx="2" fill="#CCD4DE"/><circle cx="1018" cy="218" r="11" fill="#FF8B48"/><path d="M1013,218 l4,4 l7,-8" stroke="#FFFFFF" stroke-width="3" fill="none" stroke-linecap="round"/><rect x="1030" y="214" width="54" height="70" rx="6" fill="#EEF2F7" stroke="#CCD4DE" stroke-width="2"/><circle cx="1057.0" cy="234" r="10" fill="#F2C9A5"/><path d="M1046.0,229 Q1057.0,216 1068.0,229 Z" fill="#6B4429"/><path d="M1042.0,256 Q1057.0,240 1072.0,256 Z" fill="#002959"/><rect x="1039" y="264" width="36" height="5" rx="2" fill="#CCD4DE"/><rect x="1039" y="274" width="26" height="5" rx="2" fill="#CCD4DE"/><circle cx="1080" cy="218" r="11" fill="#FF8B48"/><path d="M1075,218 l4,4 l7,-8" stroke="#FFFFFF" stroke-width="3" fill="none" stroke-linecap="round"/><rect x="1092" y="214" width="54" height="70" rx="6" fill="#EEF2F7" stroke="#CCD4DE" stroke-width="2"/><circle cx="1119.0" cy="234" r="10" fill="#F2C9A5"/><path d="M1108.0,229 Q1119.0,216 1130.0,229 Z" fill="#6B4429"/><path d="M1104.0,256 Q1119.0,240 1134.0,256 Z" fill="#002959"/><rect x="1101" y="264" width="36" height="5" rx="2" fill="#CCD4DE"/><rect x="1101" y="274" width="26" height="5" rx="2" fill="#CCD4DE"/><circle cx="1142" cy="218" r="11" fill="#FF8B48"/><path d="M1137,218 l4,4 l7,-8" stroke="#FFFFFF" stroke-width="3" fill="none" stroke-linecap="round"/><rect x="1046" y="92" width="8" height="90" fill="#002959"/><path d="M1020,190 L1080,190 L1066,180 L1034,180 Z" fill="#002959"/><circle cx="1050" cy="92" r="8" fill="#FF8B48"/><line x1="984" y1="120" x2="1116" y2="74" stroke="#002959" stroke-width="6" stroke-linecap="round"/><line x1="984" y1="120" x2="958" y2="166" stroke="#33547A" stroke-width="2"/><line x1="984" y1="120" x2="1010" y2="166" stroke="#33547A" stroke-width="2"/><path d="M950,166 L1018,166 Q1012,182 984,182 Q956,182 950,166 Z" fill="#002959"/><line x1="1116" y1="74" x2="1090" y2="120" stroke="#33547A" stroke-width="2"/><line x1="1116" y1="74" x2="1142" y2="120" stroke="#33547A" stroke-width="2"/><path d="M1082,120 L1150,120 Q1144,136 1116,136 Q1088,136 1082,120 Z" fill="#FF8B48"/><circle cx="968" cy="156" r="7" fill="#F2C9A5"/><path d="M960,166 Q968,154 976,166 Z" fill="#002959"/><circle cx="984" cy="156" r="7" fill="#F2C9A5"/><path d="M976,166 Q984,154 992,166 Z" fill="#002959"/><circle cx="1000" cy="156" r="7" fill="#F2C9A5"/><path d="M992,166 Q1000,154 1008,166 Z" fill="#002959"/><circle cx="1106" cy="110" r="7" fill="#6B4429"/><path d="M1098,120 Q1106,108 1114,120 Z" fill="#FF8B48"/><circle cx="1126" cy="110" r="7" fill="#A8714B"/><path d="M1118,120 Q1126,108 1134,120 Z" fill="#33547A"/><g transform="translate(1120,505) scale(0.85,0.85)"><ellipse cx="0" cy="2" rx="42" ry="7" fill="#002959" opacity="0.12"/><rect x="-23" y="-98" width="20" height="98" rx="9" fill="#002959"/><rect x="3" y="-98" width="20" height="98" rx="9" fill="#002959"/><ellipse cx="-14" cy="-3" rx="15" ry="7" fill="#1E2430"/><ellipse cx="14" cy="-3" rx="15" ry="7" fill="#1E2430"/><g transform="translate(0,0)"><rect x="-31" y="-178" width="62" height="92" rx="24" fill="#FF8B48"/><path d="M-31,-120 L31,-120 L31,-110 Q31,-86 7,-86 L-7,-86 Q-31,-86 -31,-110 Z" fill="#002959" opacity="0.10"/><rect x="-7" y="-188" width="14" height="16" fill="#6B4429"/><path d="M-25,-165 L-40,-130 L-20,-118" stroke="#FF8B48" stroke-width="16" fill="none" stroke-linecap="round" stroke-linejoin="round"/><circle cx="-20" cy="-118" r="8.5" fill="#6B4429"/><path d="M25,-165 L30,-130 L6,-120" stroke="#FF8B48" stroke-width="16" fill="none" stroke-linecap="round" stroke-linejoin="round"/><circle cx="6" cy="-120" r="8.5" fill="#6B4429"/><circle cx="0" cy="-206" r="25" fill="#6B4429"/><path d="M-26,-200 C-31,-242 31,-242 26,-200 C20,-219 -20,-219 -26,-200 Z" fill="#2B2118"/><circle cx="-13" cy="-203" r="2.8" fill="#002959"/><circle cx="3" cy="-203" r="2.8" fill="#002959"/><path d="M-11,-193 Q-5,-189 1,-193" stroke="#002959" stroke-width="2" fill="none" stroke-linecap="round" opacity="0.6"/></g></g><rect x="1088" y="392" width="34" height="44" rx="4" fill="#002959" transform="rotate(-12 1105 414)"/><rect x="1092" y="397" width="26" height="34" rx="2" fill="#EEF2F7" transform="rotate(-12 1105 414)"/><rect x="1095" y="404" width="14" height="4" fill="#FF8B48" transform="rotate(-12 1105 414)"/><rect x="680" y="400" width="140" height="10" rx="4" fill="#33547A"/><rect x="690" y="408" width="8" height="34" fill="#002959"/><rect x="802" y="408" width="8" height="34" fill="#002959"/><rect x="700" y="390" width="50" height="10" rx="2" fill="#FF8B48"/><rect x="706" y="382" width="44" height="8" rx="2" fill="#CCD4DE"/><rect x="772" y="372" width="20" height="28" rx="4" fill="#EEF2F7" stroke="#33547A" stroke-width="2"/><rect x="774" y="384" width="16" height="14" fill="#CCD4DE"/></g></svg>